<svg width="20" height="20" viewBox="0 0 20 20" xmlns="http://www.w3.org/2000/svg">
    <g fill="none" fill-rule="evenodd">
        <path fill="none" d="M0 0h20v20H0z"/>
        <path d="M14.524 11.15c.137 0 .238.098.238.231a.228.228 0 0 1-.238.232.228.228 0 0 1-.238-.232c0-.133.1-.231.238-.231zm0-.926c-.652 0-1.19.524-1.19 1.157 0 .634.538 1.158 1.19 1.158.652 0 1.19-.524 1.19-1.158 0-.633-.538-1.157-1.19-1.157zm-2.381-.919h6.905v4.167h-6.905c-.14 0-.238-.095-.238-.232V9.537c0-.137.098-.232.238-.232zM.953 5.117c.28.159.606.253.952.253 5.363-.004 11.82 0 16.428 0 .404 0 .715.302.715.695V8.38h-6.905c-.651 0-1.19.524-1.19 1.157v3.704c0 .633.539 1.157 1.19 1.157h6.905v2.315c0 .393-.31.694-.715.694H1.667a.693.693 0 0 1-.715-.694V5.117zm.952-2.524H16.19v1.851H1.905c-.536 0-.952-.405-.952-.925 0-.521.416-.926.952-.926zm0-.926C.858 1.667 0 2.5 0 3.519v13.194c0 .89.752 1.62 1.667 1.62h16.666c.915 0 1.667-.73 1.667-1.62V6.065c0-.89-.752-1.62-1.667-1.62h-1.19V2.13c0-.243-.227-.463-.476-.463H1.905z" fill="#FFF"/>
    </g>
</svg>
