<svg xmlns="http://www.w3.org/2000/svg" xmlns:xlink="http://www.w3.org/1999/xlink" data-name="Layer 1" preserveAspectRatio="xMidYMid meet" version="1.0" viewBox="27.8 22.6 44.5 54.7" zoomAndPan="magnify" style="fill: rgb(95, 48, 93);" role="img" aria-label="playing card icon"><defs></defs><g id="__id30_scvi21a4cq"><path class="cls-1" d="M68.577,77.321H43.839a3.755,3.755,0,0,1-3.75-3.75V34.226a3.755,3.755,0,0,1,3.75-3.75H68.577a3.755,3.755,0,0,1,3.75,3.75V73.571A3.755,3.755,0,0,1,68.577,77.321ZM43.839,32.141a2.088,2.088,0,0,0-2.085,2.085V73.571a2.088,2.088,0,0,0,2.085,2.085H68.577a2.088,2.088,0,0,0,2.085-2.085V34.226a2.088,2.088,0,0,0-2.085-2.085Z" style="fill: inherit;"></path></g><g id="__id31_scvi21a4cq"><path class="cls-1" d="M56.208,61.061a.833.833,0,0,1-.7-.376L51.36,54.352a.832.832,0,0,1,0-.91l4.152-6.389a.832.832,0,0,1,1.4,0l4.152,6.389a.832.832,0,0,1,0,.91L56.9,60.685A.833.833,0,0,1,56.208,61.061ZM53.05,53.893l3.158,4.817,3.158-4.817-3.158-4.86Z" style="fill: inherit;"></path></g><g id="__id32_scvi21a4cq"><path class="cls-1" d="M66.216,41.757a.833.833,0,0,1-.7-.376l-2.286-3.486a.832.832,0,0,1,0-.91l2.286-3.517a.832.832,0,0,1,1.4,0L69.2,36.984a.832.832,0,0,1,0,.91l-2.286,3.486A.833.833,0,0,1,66.216,41.757Zm-1.292-4.321,1.292,1.97,1.292-1.97-1.292-1.987Z" style="fill: inherit;"></path></g><g id="__id33_scvi21a4cq"><path class="cls-1" d="M46.2,74.709a.833.833,0,0,1-.7-.376l-2.286-3.486a.832.832,0,0,1,0-.91L45.5,66.419a.832.832,0,0,1,1.4,0l2.286,3.517a.832.832,0,0,1,0,.91L46.9,74.333A.833.833,0,0,1,46.2,74.709Zm-1.292-4.321,1.292,1.97,1.292-1.97L46.2,68.4Z" style="fill: inherit;"></path></g><g id="__id34_scvi21a4cq"><path class="cls-1" d="M39.155,73.695a3.888,3.888,0,0,1-3.81-3.15L27.981,32.161a3.881,3.881,0,0,1,3.081-4.543L55.1,23.007a3.886,3.886,0,0,1,4.543,3.081l.972,5.064a.832.832,0,0,1-.818.989H43.97a2.219,2.219,0,0,0-2.216,2.216V72.579a.832.832,0,0,1-.676.818l-1.19.228A3.89,3.89,0,0,1,39.155,73.695Zm1.766-1.116h0ZM55.831,24.6a2.219,2.219,0,0,0-.418.04L31.376,29.253a2.216,2.216,0,0,0-1.759,2.594L36.98,70.231a2.219,2.219,0,0,0,2.594,1.759l.515-.1V34.357a3.886,3.886,0,0,1,3.881-3.881H58.789L58.007,26.4A2.22,2.22,0,0,0,55.831,24.6Z" style="fill: inherit;"></path></g></svg>